<?xml version="1.0" standalone="no"?>
<!DOCTYPE svg PUBLIC "-//W3C//DTD SVG 1.1//EN" "http://www.w3.org/Graphics/SVG/1.1/DTD/svg11.dtd" >
<svg xmlns="http://www.w3.org/2000/svg">
<metadata></metadata>
<defs>
<font id="ConstructivistSquare" horiz-adv-x="827" >
<font-face units-per-em="2048" ascent="1638" descent="-410" />
<missing-glyph horiz-adv-x="500" />
<glyph horiz-adv-x="0" />
<glyph horiz-adv-x="2048" />
<glyph unicode="&#xd;" />
<glyph unicode=" " />
<glyph unicode="!" horiz-adv-x="765" d="M106 1638h553l-268 -1140zM152 4v473h471v-473h-471z" />
<glyph unicode="&#x22;" horiz-adv-x="1286" d="M127 1169v467h461v-700h-236v233h-225zM696 1169v467h463v-700h-237v233h-226z" />
<glyph unicode="#" horiz-adv-x="1900" d="M129 881v551h166v206h551v-206h196v202h551v-202h174v-551h-174v-197h176v-551h-176v-133h-551v133h-196v-133h-551v133h-164v551h164v197h-166zM846 684h196v197h-196v-197z" />
<glyph unicode="$" horiz-adv-x="1282" d="M98 1027q0 165 107.5 282.5t265.5 128.5v198h358v-196h293v-363h-618v-88h270q170 0 289 -119.5t119 -284.5t-109.5 -282t-267.5 -129v-172h-359v168h-290v365h618v88h-270q-170 0 -288 119.5t-118 284.5z" />
<glyph unicode="%" horiz-adv-x="1886" d="M125 6l1110 1628h528l-1112 -1628h-526zM213 1163v471h463v-471h-463zM1194 0v459h463v-459h-463z" />
<glyph unicode="&#x26;" horiz-adv-x="1714" d="M115 493q0 202 143 345t346 143t345.5 -143t142.5 -346t-142.5 -346.5t-345.5 -143.5t-346 144.5t-143 346.5zM195 1311q0 137 97 233t233 96t233.5 -96t97.5 -233t-97 -233.5t-233.5 -96.5t-233.5 96.5t-97 233.5zM772 1071l344 342l342 -342l-342 -344zM1116 223v484 h483v-484h-483z" />
<glyph unicode="'" horiz-adv-x="714" d="M125 1171v467h463v-700h-238v233h-225z" />
<glyph unicode="(" horiz-adv-x="770" d="M129 829q0 307 137 576.5t375 447.5v-2048q-238 178 -375 447.5t-137 576.5z" />
<glyph unicode=")" horiz-adv-x="741" d="M115 -215v2048q238 -178 375 -447.5t137 -576.5t-137.5 -576.5t-374.5 -447.5z" />
<glyph unicode="*" horiz-adv-x="1318" d="M125 1251l407 -8l119 389l115 -389l410 8l-336 -231l135 -385l-324 248l-325 -248l135 385z" />
<glyph unicode="+" horiz-adv-x="1880" d="M121 545v549h547v544h553v-544h538v-549h-538v-543h-553v543h-547z" />
<glyph unicode="," horiz-adv-x="708" d="M123 -4v467h461v-701h-236v234h-225z" />
<glyph unicode="-" horiz-adv-x="974" d="M141 582v467h690v-467h-690z" />
<glyph unicode="." horiz-adv-x="698" d="M119 -4v463h463v-463h-463z" />
<glyph unicode="/" horiz-adv-x="1869" d="M117 6l1110 1628h528l-1112 -1628h-526z" />
<glyph unicode="0" horiz-adv-x="1658" d="M127 0v1638h1403v-1638h-1403zM594 465h467v702h-467v-702z" />
<glyph unicode="1" horiz-adv-x="1167" d="M117 2v465h231v707h-231v464h704v-1171h230v-465h-934z" />
<glyph unicode="2" horiz-adv-x="1646" d="M121 0v465l782 586v116h-313v-116h-469v587h1403v-587l-758 -586h758v-465h-1403z" />
<glyph unicode="3" horiz-adv-x="1640" d="M119 0v465h819l-350 350l350 350h-819v473h1403v-473l-348 -350l348 -350v-465h-1403z" />
<glyph unicode="4" horiz-adv-x="1652" d="M127 1636h471v-702h467v702h461v-1638h-469l2 473h-930z" />
<glyph unicode="5" horiz-adv-x="1562" d="M119 580v1054h1251v-467h-795v-116l347 2q217 2 370.5 -153t153.5 -371t-150.5 -371.5t-363.5 -155.5l-805 -2v463h795v117h-803z" />
<glyph unicode="6" horiz-adv-x="1656" d="M131 2h1399v1399h-930v239h-469v-1638zM592 473v465h473v-465h-473z" />
<glyph unicode="7" horiz-adv-x="1425" d="M127 1169v467h1171v-1636h-462v1169h-709z" />
<glyph unicode="8" horiz-adv-x="1671" d="M121 0v762h479v-483h477v483l131 2l342 -2l2 -762h-1431zM440 858v778h777v-778h-777z" />
<glyph unicode="9" horiz-adv-x="1662" d="M131 242v1396h1399v-1636h-469v240h-930zM596 705h473v464h-473v-464z" />
<glyph unicode=":" horiz-adv-x="704" d="M121 334v463h463v-463h-463zM121 999v463h463v-463h-463z" />
<glyph unicode=";" horiz-adv-x="714" d="M121 334v467h461v-701h-236v234h-225zM129 999v463h463v-463h-463z" />
<glyph unicode="&#x3c;" />
<glyph unicode="=" horiz-adv-x="1886" d="M123 133v551h1638v-551h-1638zM125 881v551h1638v-551h-1638z" />
<glyph unicode="&#x3e;" />
<glyph unicode="?" />
<glyph unicode="@" horiz-adv-x="1851" d="M92 748q0 406 211 638q227 254 658 244q379 -10 604 -284q195 -240 194 -545q0 -195 -88 -312q-94 -129 -256 -112q-80 8 -159 54t-150 89h-602l414 684l305 -512q4 -2 88 -60.5t127 -58.5q104 0 104 191q0 315 -224 516q-153 137 -366 143q-279 8 -464 -171t-204 -437 t150 -459q137 -162 455 -161q72 0 186 8l6 -201q-66 -4 -131 -4q-334 0 -547 117q-266 145 -301 454q-10 92 -10 179z" />
<glyph unicode="A" horiz-adv-x="1869" d="M102 2l592 1636h477l596 -1636h-469l-368 944l-352 -944h-476zM709 238h448q-8 2 -221 -299z" />
<glyph unicode="B" horiz-adv-x="1619" d="M109 0v1638h856q233 0 374 -90q170 -111 170 -331q0 -311 -221 -398q221 -88 221 -397q0 -221 -170 -330q-141 -92 -374 -92h-856zM575 469h183q262 0 262 137q0 41 -23 78q-94 92 -305 125q-18 2 -18 10t18 10q211 33 305 125q23 37 23 74q0 141 -262 141h-183v-700z " />
<glyph unicode="C" horiz-adv-x="1601" d="M98 0v1638h1405v-464h-936v-709h936v-465h-1405z" />
<glyph unicode="D" horiz-adv-x="1624" d="M111 0v1638h1161l241 -241v-1149l-245 -248h-1157zM571 465h482v709h-482v-709z" />
<glyph unicode="E" horiz-adv-x="1615" d="M106 0v1638h1405v-467h-936v-122h476v-471h-476v-113h936v-465h-1405z" />
<glyph unicode="F" horiz-adv-x="1607" d="M102 0v1638h1405v-464h-936v-125h476v-469h-476v-580h-469z" />
<glyph unicode="G" horiz-adv-x="1652" d="M123 0v1634h1405v-467h-934v-700h467v463h467v-930h-1405z" />
<glyph unicode="H" horiz-adv-x="1662" d="M131 0v1638h469v-563h473v563h461v-1638h-461v602h-473v-602h-469z" />
<glyph unicode="I" horiz-adv-x="1179" d="M121 0v471h239v705h-239v462h940v-462h-234v-705h228v-471h-934z" />
<glyph unicode="J" horiz-adv-x="1652" d="M125 0v698h469v-231h473v1171h461v-1638h-1403z" />
<glyph unicode="K" horiz-adv-x="1617" d="M111 2v1636h464v-1636h-464zM580 819l467 819h458l-458 -819l458 -819h-458z" />
<glyph unicode="L" horiz-adv-x="1355" d="M92 0v1638h463v-1171h709v-467h-1172z" />
<glyph unicode="M" horiz-adv-x="1894" d="M129 0v1638h477l350 -716l344 712l467 4v-1638h-475v674l-342 -674l-344 692v-692h-477z" />
<glyph unicode="N" horiz-adv-x="1652" d="M125 0v1638h461l481 -784v784h461v-1638h-461l-481 784v-784h-461z" />
<glyph unicode="O" horiz-adv-x="1658" d="M127 0v1638h1403v-1638h-1403zM594 465h467v702h-467v-702z" />
<glyph unicode="P" horiz-adv-x="1630" d="M113 2v1636h1405v-1400h-936v-236h-469zM582 702h469v474h-469v-474z" />
<glyph unicode="Q" horiz-adv-x="1636" d="M117 283v1355h1401v-1355h-463v-281h-471v281h-467zM582 705h473v464h-473v-464z" />
<glyph unicode="R" horiz-adv-x="1650" d="M125 -2v1636h1403v-1325h-322l322 -313h-610l-326 313v-311h-467zM592 696h471v473h-471v-473z" />
<glyph unicode="S" horiz-adv-x="1607" d="M106 1103q0 214 144.5 372.5t349.5 158.5h825v-469h-796v-112h348q217 0 370.5 -155t153.5 -372t-151.5 -372.5t-364.5 -155.5l-805 -2v471h797v113h-348q-217 0 -370 154.5t-153 368.5z" />
<glyph unicode="T" horiz-adv-x="1613" d="M106 1176v462h1403v-462h-460v-1172h-474v1172h-469z" />
<glyph unicode="U" horiz-adv-x="1722" d="M113 0v1638h471v-1171h467v1171h469v-1167h90v-549h-363v78h-1134z" />
<glyph unicode="V" horiz-adv-x="1832" d="M94 1638h469l348 -952l367 952h461l-588 -1638h-471z" />
<glyph unicode="W" horiz-adv-x="2625" d="M113 0v1638h469v-1173h432v1173h469v-1173h469v1173h469v-1167h92v-551h-365v80h-2035z" />
<glyph unicode="X" horiz-adv-x="1873" d="M113 0l563 825l-563 813h526l297 -434l297 434h526l-563 -813l563 -825h-514l-309 449l-309 -449h-514z" />
<glyph unicode="Y" horiz-adv-x="1624" d="M111 1634h526l180 -364l174 364h522l-462 -821v-817h-473v817z" />
<glyph unicode="Z" horiz-adv-x="1644" d="M121 0v463l713 708h-713v467h1401v-467l-707 -704h707v-467h-1401z" />
<glyph unicode="[" />
<glyph unicode="\" />
<glyph unicode="]" />
<glyph unicode="^" horiz-adv-x="1533" d="M113 815v369l655 372l655 -372v-369l-655 369z" />
<glyph unicode="_" />
<glyph unicode="`" />
<glyph unicode="a" horiz-adv-x="1851" d="M94 2l592 1636h477l596 -1636h-469l-368 944l-353 -944h-475zM700 238h449q-8 2 -221 -299z" />
<glyph unicode="b" horiz-adv-x="1619" d="M109 0v1638h856q233 0 374 -90q170 -111 170 -331q0 -311 -221 -398q221 -88 221 -397q0 -221 -170 -330q-141 -92 -374 -92h-856zM575 469h183q262 0 262 137q0 41 -23 78q-94 92 -305 125q-18 2 -18 10t18 10q211 33 305 125q23 37 23 74q0 141 -262 141h-183v-700z " />
<glyph unicode="c" horiz-adv-x="1601" d="M98 0v1638h1405v-464h-936v-709h936v-465h-1405z" />
<glyph unicode="d" horiz-adv-x="1624" d="M111 0v1638h1161l241 -241v-1149l-245 -248h-1157zM571 465h482v709h-482v-709z" />
<glyph unicode="e" horiz-adv-x="1615" d="M106 0v1638h1405v-467h-936v-122h476v-471h-476v-113h936v-465h-1405z" />
<glyph unicode="f" horiz-adv-x="1607" d="M102 0v1638h1405v-464h-936v-125h476v-469h-476v-580h-469z" />
<glyph unicode="g" horiz-adv-x="1652" d="M123 0v1634h1405v-467h-934v-700h467v463h467v-930h-1405z" />
<glyph unicode="h" horiz-adv-x="1662" d="M131 0v1638h469v-563h473v563h461v-1638h-461v602h-473v-602h-469z" />
<glyph unicode="i" horiz-adv-x="1179" d="M121 0v471h239v705h-239v462h940v-462h-234v-705h228v-471h-934z" />
<glyph unicode="j" horiz-adv-x="1652" d="M125 0v698h469v-231h473v1171h461v-1638h-1403z" />
<glyph unicode="k" horiz-adv-x="1617" d="M111 2v1636h464v-1636h-464zM580 819l467 819h458l-458 -819l458 -819h-458z" />
<glyph unicode="l" horiz-adv-x="1355" d="M92 0v1638h463v-1171h709v-467h-1172z" />
<glyph unicode="m" horiz-adv-x="1894" d="M129 0v1638h477l350 -716l344 712l467 4v-1638h-475v674l-342 -674l-344 692v-692h-477z" />
<glyph unicode="n" horiz-adv-x="1652" d="M125 0v1638h461l481 -784v784h461v-1638h-461l-481 784v-784h-461z" />
<glyph unicode="o" horiz-adv-x="1658" d="M127 0v1638h1403v-1638h-1403zM594 465h467v702h-467v-702z" />
<glyph unicode="p" horiz-adv-x="1630" d="M113 2v1636h1405v-1400h-936v-236h-469zM582 702h469v474h-469v-474z" />
<glyph unicode="q" horiz-adv-x="1636" d="M117 283v1355h1401v-1355h-463v-281h-471v281h-467zM582 705h473v464h-473v-464z" />
<glyph unicode="r" horiz-adv-x="1650" d="M125 -2v1636h1403v-1325h-322l322 -313h-610l-326 313v-311h-467zM592 696h471v473h-471v-473z" />
<glyph unicode="s" horiz-adv-x="1585" d="M94 1103q0 214 144.5 372.5t349.5 158.5h825v-469h-797v-112h349q217 0 370.5 -155t153.5 -372t-151.5 -372.5t-364.5 -155.5l-805 -2v471h797v113h-349q-217 0 -369.5 154.5t-152.5 368.5z" />
<glyph unicode="t" horiz-adv-x="1613" d="M106 1176v462h1403v-462h-460v-1172h-474v1172h-469z" />
<glyph unicode="u" horiz-adv-x="1662" d="M127 0v1638h471v-1171h467v1171h469l2 -1636h-137q-90 -2 -137 -2h-1135z" />
<glyph unicode="v" horiz-adv-x="1832" d="M94 1638h469l348 -952l367 952h461l-588 -1638h-471z" />
<glyph unicode="w" horiz-adv-x="2564" d="M127 0v1638h469v-1173h432v1173h469v-1173h469v1173h469l-2 -1638h-2306z" />
<glyph unicode="x" horiz-adv-x="2537" d="M111 0l456 821l-456 817h456l467 -817l-467 -821h-456zM1034 0v1636h467v-1636h-467zM1503 815l465 821h459l-459 -821l459 -815h-459z" />
<glyph unicode="y" horiz-adv-x="1624" d="M111 1634h526l180 -364l174 364h522l-462 -821v-817h-473v817z" />
<glyph unicode="z" horiz-adv-x="1644" d="M121 0v463l713 708h-713v467h1401v-467l-707 -704h707v-467h-1401z" />
<glyph unicode="{" />
<glyph unicode="|" />
<glyph unicode="}" />
<glyph unicode="~" />
<glyph unicode="&#xa0;" />
<glyph unicode="&#xa1;" />
<glyph unicode="&#xa2;" />
<glyph unicode="&#xa3;" />
<glyph unicode="&#xa4;" />
<glyph unicode="&#xa5;" />
<glyph unicode="&#xa6;" />
<glyph unicode="&#xa7;" />
<glyph unicode="&#xa8;" />
<glyph unicode="&#xa9;" />
<glyph unicode="&#xaa;" />
<glyph unicode="&#xab;" />
<glyph unicode="&#xac;" horiz-adv-x="1873" d="M127 764q0 252 135 473q102 168 292 270.5t433 96.5q367 -11 615 -363q147 -209 147 -463t-144.5 -469t-373.5 -295q-143 -49 -287 -49q-268 0 -480 161t-296 392q-41 115 -41 246zM336 870q0 -63 14 -119.5t64.5 -134t60.5 -130t60 -236.5q-2 -27 8 -76q4 -8 93 -50 t109 -40q164 8 246 39q27 10 65 76.5t64 73.5q55 15 145.5 -4t125.5 -15q12 43 12 85t-37 88t-41 73t33 55q29 16 57 35q-14 18 -43 63q8 16 17 33q32 45 32 47q-2 14 -54 67.5t-54 78.5t59 63q-47 27 -69.5 131.5t-30.5 122.5q-37 78 -153 142.5t-236 64.5 q-209 0 -378 -163t-169 -370zM365 866q0 41 9 84t72.5 78t106.5 37q10 0 27.5 -13.5t25.5 -15.5q86 -12 86 -22q0 12 -37 -76l68 6q23 0 22 -14q0 -12 -16 -38t-33 -28q-68 47 -143 58l-33 -29q-51 -43 -51 -87t44 -91t83 -88q6 -14 18 -37q10 -8 25.5 -8t45.5 22.5t40 26.5 q12 -70 12 -127q39 -10 113 -41q10 -6 15 -24.5t13.5 -27t55.5 -20.5t61 -10q14 16 74 37q14 -27 8 -68q35 -6 113 -14q6 27 31 41q25 -23 32 -60q25 -2 72 -8l6 -22q-31 0 -94 13t-86.5 13t-39 -4t-74 -76.5t-101.5 -72.5q-25 0 -46 19t-51 65.5t-34 68.5q4 18 0 56 q-14 33 -73.5 69.5t-76.5 65.5q-14 -8 -26 -8q25 -117 59.5 -147t77.5 -90t48 -89q7 -42 -36 -29q-37 25 -50 53t-32 59.5t-41 22.5q-2 0 11 -112q-45 10 -62 15t-24 18q-25 35 -42 129t-32 174q-12 49 -76.5 161.5t-64.5 204.5zM524 788q-4 72 37 76q82 8 82 -112 q0 -41 -10 -68q-25 37 -60 66q34 69 11 69q-14 0 -60 -31zM969 881q43 -2 168 49q-27 14 -78 22q-47 -8 -59.5 -8t-14.5 2q0 8 33 25q20 14 69 30q35 4 81 -12t49 -16q12 2 27 -53.5t9 -90.5q-35 0 -69 2q-25 4 -43 52q-37 -10 -88 -22.5t-80 -20.5q0 8 -4 41zM1034 498 q0 31 31 30q16 0 22 -20q18 18 32 27.5t93 33.5q31 22 109 47q45 2 45 -18q0 -35 -49 -49q-14 -4 -105 -4q16 -29 91 -41q-41 -29 -81 -29t-92 25q-23 -33 -49 -33q-47 0 -47 31zM1112 586v26q8 5 18 15q12 -4 13 -13q0 -10 -31 -28zM1208 713q12 14 31 39q16 -12 24 -32 t48 -17t41 -15q0 -27 -55.5 -26.5t-88.5 51.5zM1284 426q29 -14 29 -23.5t-10 -13.5q-11 -4 -18 0t-1 37z" />
<glyph unicode="&#xad;" horiz-adv-x="974" d="M141 582v467h690v-467h-690z" />
<glyph unicode="&#xae;" horiz-adv-x="1665" d="M131 0h610l326 311v-311h467v1636h-1403v-1325h322zM596 698v473h471v-473h-471z" />
<glyph unicode="&#xaf;" />
<glyph unicode="&#xb0;" />
<glyph unicode="&#xb1;" />
<glyph unicode="&#xb2;" />
<glyph unicode="&#xb3;" />
<glyph unicode="&#xb4;" />
<glyph unicode="&#xb5;" />
<glyph unicode="&#xb6;" />
<glyph unicode="&#xb7;" />
<glyph unicode="&#xb8;" />
<glyph unicode="&#xb9;" />
<glyph unicode="&#xba;" />
<glyph unicode="&#xbb;" />
<glyph unicode="&#xbc;" />
<glyph unicode="&#xbd;" />
<glyph unicode="&#xbe;" />
<glyph unicode="&#xbf;" />
<glyph unicode="&#xc0;" />
<glyph unicode="&#xc1;" />
<glyph unicode="&#xc2;" />
<glyph unicode="&#xc3;" />
<glyph unicode="&#xc4;" />
<glyph unicode="&#xc5;" />
<glyph unicode="&#xc6;" />
<glyph unicode="&#xc7;" />
<glyph unicode="&#xc8;" />
<glyph unicode="&#xc9;" />
<glyph unicode="&#xca;" />
<glyph unicode="&#xcb;" />
<glyph unicode="&#xcc;" />
<glyph unicode="&#xcd;" />
<glyph unicode="&#xce;" />
<glyph unicode="&#xcf;" />
<glyph unicode="&#xd0;" />
<glyph unicode="&#xd1;" />
<glyph unicode="&#xd2;" />
<glyph unicode="&#xd3;" />
<glyph unicode="&#xd4;" />
<glyph unicode="&#xd5;" />
<glyph unicode="&#xd6;" />
<glyph unicode="&#xd7;" />
<glyph unicode="&#xd8;" />
<glyph unicode="&#xd9;" />
<glyph unicode="&#xda;" />
<glyph unicode="&#xdb;" />
<glyph unicode="&#xdc;" />
<glyph unicode="&#xdd;" />
<glyph unicode="&#xde;" />
<glyph unicode="&#xdf;" />
<glyph unicode="&#xe0;" />
<glyph unicode="&#xe1;" />
<glyph unicode="&#xe2;" />
<glyph unicode="&#xe3;" />
<glyph unicode="&#xe4;" />
<glyph unicode="&#xe5;" />
<glyph unicode="&#xe6;" />
<glyph unicode="&#xe7;" />
<glyph unicode="&#xe8;" />
<glyph unicode="&#xe9;" />
<glyph unicode="&#xea;" />
<glyph unicode="&#xeb;" />
<glyph unicode="&#xec;" />
<glyph unicode="&#xed;" />
<glyph unicode="&#xee;" />
<glyph unicode="&#xef;" />
<glyph unicode="&#xf0;" />
<glyph unicode="&#xf1;" />
<glyph unicode="&#xf2;" />
<glyph unicode="&#xf3;" />
<glyph unicode="&#xf4;" />
<glyph unicode="&#xf5;" />
<glyph unicode="&#xf6;" />
<glyph unicode="&#xf7;" />
<glyph unicode="&#xf8;" horiz-adv-x="1376" d="M127 262v1118h377v262h368v-262h377v-1118h-370v-272h-377v272h-375zM453 586h473v465h-473v-465z" />
<glyph unicode="&#x152;" />
<glyph unicode="&#x153;" />
<glyph unicode="&#x178;" />
<glyph unicode="&#x2c6;" />
<glyph unicode="&#x2dc;" />
<glyph unicode="&#x2000;" horiz-adv-x="926" />
<glyph unicode="&#x2001;" horiz-adv-x="1853" />
<glyph unicode="&#x2002;" horiz-adv-x="926" />
<glyph unicode="&#x2003;" horiz-adv-x="1853" />
<glyph unicode="&#x2004;" horiz-adv-x="617" />
<glyph unicode="&#x2005;" horiz-adv-x="463" />
<glyph unicode="&#x2006;" horiz-adv-x="308" />
<glyph unicode="&#x2007;" horiz-adv-x="308" />
<glyph unicode="&#x2008;" horiz-adv-x="231" />
<glyph unicode="&#x2009;" horiz-adv-x="370" />
<glyph unicode="&#x200a;" horiz-adv-x="102" />
<glyph unicode="&#x2010;" horiz-adv-x="974" d="M141 582v467h690v-467h-690z" />
<glyph unicode="&#x2011;" horiz-adv-x="974" d="M141 582v467h690v-467h-690z" />
<glyph unicode="&#x2012;" horiz-adv-x="974" d="M141 582v467h690v-467h-690z" />
<glyph unicode="&#x2013;" />
<glyph unicode="&#x2014;" />
<glyph unicode="&#x2018;" />
<glyph unicode="&#x2019;" />
<glyph unicode="&#x201a;" />
<glyph unicode="&#x201c;" />
<glyph unicode="&#x201d;" />
<glyph unicode="&#x201e;" />
<glyph unicode="&#x2022;" />
<glyph unicode="&#x2026;" />
<glyph unicode="&#x202f;" horiz-adv-x="370" />
<glyph unicode="&#x2039;" />
<glyph unicode="&#x203a;" />
<glyph unicode="&#x205f;" horiz-adv-x="463" />
<glyph unicode="&#x2122;" />
<glyph unicode="&#xe000;" horiz-adv-x="1638" d="M0 0v1638h1638v-1638h-1638z" />
</font>
</defs>
</svg>
